G04 #@! TF.GenerationSoftware,KiCad,Pcbnew,7.0.0-da2b9df05c~171~ubuntu20.04.1*
G04 #@! TF.CreationDate,2023-05-09T13:21:18-04:00*
G04 #@! TF.ProjectId,Phecda_V4,50686563-6461-45f5-9634-2e6b69636164,rev?*
G04 #@! TF.SameCoordinates,Original*
G04 #@! TF.FileFunction,Soldermask,Bot*
G04 #@! TF.FilePolarity,Negative*
%FSLAX46Y46*%
G04 Gerber Fmt 4.6, Leading zero omitted, Abs format (unit mm)*
G04 Created by KiCad (PCBNEW 7.0.0-da2b9df05c~171~ubuntu20.04.1) date 2023-05-09 13:21:18*
%MOMM*%
%LPD*%
G01*
G04 APERTURE LIST*
G04 Aperture macros list*
%AMRoundRect*
0 Rectangle with rounded corners*
0 $1 Rounding radius*
0 $2 $3 $4 $5 $6 $7 $8 $9 X,Y pos of 4 corners*
0 Add a 4 corners polygon primitive as box body*
4,1,4,$2,$3,$4,$5,$6,$7,$8,$9,$2,$3,0*
0 Add four circle primitives for the rounded corners*
1,1,$1+$1,$2,$3*
1,1,$1+$1,$4,$5*
1,1,$1+$1,$6,$7*
1,1,$1+$1,$8,$9*
0 Add four rect primitives between the rounded corners*
20,1,$1+$1,$2,$3,$4,$5,0*
20,1,$1+$1,$4,$5,$6,$7,0*
20,1,$1+$1,$6,$7,$8,$9,0*
20,1,$1+$1,$8,$9,$2,$3,0*%
G04 Aperture macros list end*
%ADD10R,1.700000X1.700000*%
%ADD11O,1.700000X1.700000*%
%ADD12C,2.200000*%
%ADD13R,1.500000X5.080000*%
%ADD14R,5.080000X1.500000*%
%ADD15RoundRect,0.250000X0.600000X0.725000X-0.600000X0.725000X-0.600000X-0.725000X0.600000X-0.725000X0*%
%ADD16O,1.700000X1.950000*%
%ADD17C,1.800000*%
%ADD18O,1.550000X0.890000*%
%ADD19O,0.950000X1.250000*%
%ADD20O,4.000000X2.000000*%
%ADD21O,2.000000X4.000000*%
%ADD22C,1.000000*%
%ADD23RoundRect,0.250000X0.650000X-0.325000X0.650000X0.325000X-0.650000X0.325000X-0.650000X-0.325000X0*%
%ADD24RoundRect,0.225000X0.225000X0.250000X-0.225000X0.250000X-0.225000X-0.250000X0.225000X-0.250000X0*%
%ADD25RoundRect,0.225000X0.250000X-0.225000X0.250000X0.225000X-0.250000X0.225000X-0.250000X-0.225000X0*%
%ADD26RoundRect,0.250000X0.250000X0.475000X-0.250000X0.475000X-0.250000X-0.475000X0.250000X-0.475000X0*%
G04 APERTURE END LIST*
D10*
X62894999Y-63569999D03*
D11*
X65434999Y-63569999D03*
D12*
X44000000Y-42000000D03*
X138000000Y-42000000D03*
D13*
X89749999Y-121137499D03*
X81249999Y-121137499D03*
D14*
X43562499Y-116749999D03*
X43562499Y-108249999D03*
D15*
X66140000Y-69980000D03*
D16*
X63639999Y-69979999D03*
X61139999Y-69979999D03*
X58639999Y-69979999D03*
D17*
X112900000Y-97500000D03*
X115440000Y-97500000D03*
X117980000Y-97500000D03*
X117980000Y-115280000D03*
X115440000Y-115280000D03*
X112900000Y-115280000D03*
D18*
X139499999Y-56499999D03*
D19*
X136799999Y-55499999D03*
X136799999Y-50499999D03*
D18*
X139499999Y-49499999D03*
D12*
X138000000Y-121000000D03*
D17*
X66900000Y-81520000D03*
X69440000Y-81520000D03*
X71980000Y-81520000D03*
X74520000Y-81520000D03*
X77060000Y-81520000D03*
X77060000Y-99300000D03*
X74520000Y-99300000D03*
X71980000Y-99300000D03*
X69440000Y-99300000D03*
X66900000Y-99300000D03*
X54960000Y-104110000D03*
X57500000Y-104110000D03*
X60040000Y-104110000D03*
X60040000Y-121890000D03*
X57500000Y-121890000D03*
X54960000Y-121890000D03*
X52420000Y-81500000D03*
X54960000Y-81500000D03*
X57500000Y-81500000D03*
X60040000Y-81500000D03*
X62580000Y-81500000D03*
X62580000Y-99280000D03*
X60040000Y-99280000D03*
X57500000Y-99280000D03*
X54960000Y-99280000D03*
X52420000Y-99280000D03*
X95920000Y-72720000D03*
X98460000Y-72720000D03*
X101000000Y-72720000D03*
X103540000Y-72720000D03*
X106080000Y-72720000D03*
X106080000Y-90500000D03*
X103540000Y-90500000D03*
X101000000Y-90500000D03*
X98460000Y-90500000D03*
X95920000Y-90500000D03*
X69460000Y-104110000D03*
X72000000Y-104110000D03*
X74540000Y-104110000D03*
X74540000Y-121890000D03*
X72000000Y-121890000D03*
X69460000Y-121890000D03*
D10*
X64199999Y-40999999D03*
D11*
X61659999Y-40999999D03*
X59119999Y-40999999D03*
X56579999Y-40999999D03*
X54039999Y-40999999D03*
X51499999Y-40999999D03*
X48959999Y-40999999D03*
D17*
X98460000Y-95110000D03*
X101000000Y-95110000D03*
X103540000Y-95110000D03*
X103540000Y-112890000D03*
X101000000Y-112890000D03*
X98460000Y-112890000D03*
D20*
X44999999Y-103999999D03*
X44999999Y-98999999D03*
D13*
X123249999Y-121137499D03*
X114749999Y-121137499D03*
D14*
X43562499Y-94749999D03*
X43562499Y-86249999D03*
D17*
X110340000Y-75120000D03*
X112880000Y-75120000D03*
X115420000Y-75120000D03*
X117960000Y-75120000D03*
X120500000Y-75120000D03*
X120500000Y-92900000D03*
X117960000Y-92900000D03*
X115420000Y-92900000D03*
X112880000Y-92900000D03*
X110340000Y-92900000D03*
D20*
X44999999Y-81999999D03*
X44999999Y-76999999D03*
D21*
X98999999Y-119999999D03*
X93999999Y-119999999D03*
D17*
X84000000Y-95220000D03*
X86540000Y-95220000D03*
X89080000Y-95220000D03*
X89080000Y-113000000D03*
X86540000Y-113000000D03*
X84000000Y-113000000D03*
D12*
X44000000Y-121000000D03*
D15*
X51920000Y-69860000D03*
D16*
X49419999Y-69859999D03*
X46919999Y-69859999D03*
X44419999Y-69859999D03*
D22*
X48030000Y-50830000D03*
X48030000Y-58810000D03*
D13*
X111749999Y-121137499D03*
X103249999Y-121137499D03*
D10*
X137799999Y-72039999D03*
D11*
X137799999Y-69499999D03*
D20*
X136999999Y-78499999D03*
X136999999Y-83499999D03*
D23*
X60500000Y-47475000D03*
X60500000Y-44525000D03*
D24*
X52455000Y-52130000D03*
X50905000Y-52130000D03*
D25*
X62730000Y-46045000D03*
X62730000Y-44495000D03*
D26*
X52680000Y-54380000D03*
X50780000Y-54380000D03*
M02*
