M48
; DRILL file {KiCad 7.0.5-7.0.5~ubuntu20.04.1} date lun 09 oct 2023 18:00:59
; FORMAT={-:-/ absolute / metric / decimal}
; #@! TF.CreationDate,2023-10-09T18:00:59-03:00
; #@! TF.GenerationSoftware,Kicad,Pcbnew,7.0.5-7.0.5~ubuntu20.04.1
; #@! TF.FileFunction,Plated,1,2,PTH
FMAT,2
METRIC
; #@! TA.AperFunction,Plated,PTH,ComponentDrill
T1C0.200
; #@! TA.AperFunction,Plated,PTH,ViaDrill
T2C0.300
; #@! TA.AperFunction,Plated,PTH,ViaDrill
T3C0.400
; #@! TA.AperFunction,Plated,PTH,ComponentDrill
T4C0.500
; #@! TA.AperFunction,Plated,PTH,ComponentDrill
T5C0.550
; #@! TA.AperFunction,Plated,PTH,ComponentDrill
T6C0.950
; #@! TA.AperFunction,Plated,PTH,ComponentDrill
T7C1.000
; #@! TA.AperFunction,Plated,PTH,ComponentDrill
T8C1.200
%
G90
G05
T1
X73.95Y-46.877
X73.95Y-48.402
X74.712Y-46.115
X74.712Y-47.64
X74.712Y-49.165
X75.475Y-46.877
X75.475Y-48.402
X76.237Y-46.115
X76.237Y-47.64
X76.237Y-49.165
X77.0Y-46.877
X77.0Y-48.402
T2
X41.7Y-114.8
X42.0Y-110.6
X42.2Y-88.4
X42.2Y-92.8
X42.3Y-79.6
X42.6Y-101.2
X44.4Y-93.0
X44.6Y-88.0
X44.82Y-65.95
X45.12Y-73.02
X45.8Y-106.3
X45.92Y-55.26
X46.38Y-51.52
X46.8Y-60.52
X47.2Y-43.0
X48.35Y-90.05
X48.4Y-76.85
X48.5Y-116.1
X48.6Y-121.9
X49.1Y-109.0
X50.34Y-73.13
X50.37Y-61.73
X54.0Y-96.7
X54.16Y-49.17
X54.3Y-101.5
X55.25Y-70.05
X55.3Y-56.84
X55.3Y-112.9
X55.43Y-53.61
X55.57Y-45.08
X56.0Y-91.1
X56.1Y-75.95
X56.56Y-58.55
X56.76Y-54.52
X58.47Y-76.01
X58.53Y-72.98
X58.53Y-79.37
X58.55Y-101.55
X59.95Y-86.2
X60.45Y-65.24
X60.92Y-60.01
X61.1Y-101.35
X61.6Y-119.1
X62.45Y-107.9
X62.85Y-91.13
X63.22Y-50.76
X63.98Y-54.66
X64.67Y-58.15
X65.05Y-68.11
X65.2Y-72.55
X65.2Y-77.35
X65.3Y-43.15
X65.35Y-56.54
X65.5Y-120.1
X65.54Y-60.49
X66.95Y-88.6
X68.6Y-41.5
X69.01Y-61.91
X69.045Y-57.455
X69.05Y-101.5
X69.53Y-53.03
X69.75Y-106.95
X70.9Y-44.6
X71.05Y-65.7
X71.3Y-110.4
X71.55Y-60.2
X71.84Y-55.78
X72.15Y-76.4
X72.32Y-49.2
X73.25Y-101.7
X73.56Y-52.08
X73.71Y-50.77
X74.32Y-54.56
X74.5Y-55.6
X74.59Y-62.37
X74.62Y-52.98
X74.9Y-68.6
X75.95Y-101.4
X76.2Y-86.4
X76.5Y-111.4
X77.02Y-41.9
X77.75Y-121.45
X78.2Y-55.0
X79.17Y-46.4
X79.26Y-45.41
X79.48Y-62.27
X79.5Y-49.5
X80.55Y-90.95
X80.62Y-56.33
X80.95Y-83.1
X81.76Y-40.48
X82.2Y-116.3
X82.4Y-47.12
X82.5Y-55.4
X82.76Y-42.05
X83.09Y-53.98
X83.19Y-45.23
X83.7Y-123.1
X86.45Y-49.65
X87.23Y-45.0
X87.32Y-46.32
X87.4Y-55.3
X87.4Y-116.8
X87.6Y-122.4
X87.8Y-102.4
X88.8Y-59.0
X88.8Y-66.05
X89.1Y-43.0
X89.45Y-89.61
X89.9Y-60.6
X90.32Y-53.47
X90.64Y-41.97
X90.8Y-84.7
X91.0Y-73.05
X91.063Y-57.247
X91.6Y-120.2
X92.278Y-52.912
X94.24Y-44.86
X95.1Y-47.7
X95.6Y-59.3
X95.65Y-70.05
X95.85Y-80.55
X96.4Y-41.7
X96.4Y-119.3
X96.64Y-50.29
X97.47Y-49.24
X98.0Y-123.1
X98.05Y-47.79
X98.1Y-57.1
X98.15Y-92.7
X98.65Y-67.75
X99.075Y-56.42
X100.0Y-42.3
X100.328Y-54.99
X100.7Y-64.1
X101.85Y-92.7
X101.851Y-56.949
X102.7Y-40.97
X103.4Y-102.4
X103.66Y-49.34
X104.0Y-40.4
X104.4Y-57.0
X104.55Y-92.85
X104.9Y-119.9
X105.3Y-67.4
X105.6Y-64.5
X105.65Y-117.61
X105.91Y-55.7
X106.61Y-41.2
X106.66Y-53.78
X107.99Y-40.06
X108.48Y-70.72
X108.5Y-57.1
X109.4Y-117.15
X110.23Y-61.63
X110.4Y-65.3
X111.8Y-49.6
X112.0Y-55.1
X112.05Y-68.275
X112.3Y-40.4
X112.7Y-95.3
X112.9Y-70.9
X113.0Y-64.4
X113.26Y-110.99
X113.4Y-84.6
X114.5Y-46.3
X114.9Y-61.6
X116.099Y-68.7
X116.27Y-65.32
X116.4Y-94.9
X116.8Y-122.6
X117.0Y-119.3
X117.04Y-41.21
X118.8Y-103.9
X119.35Y-94.9
X119.5Y-55.4
X120.05Y-66.725
X120.1Y-64.75
X120.2Y-71.5
X120.41Y-46.48
X120.51Y-53.77
X120.66Y-59.76
X121.2Y-122.8
X121.45Y-115.8
X122.35Y-78.55
X122.6Y-76.3
X123.14Y-44.1
X123.2Y-74.4
X123.9Y-98.4
X124.7Y-92.4
X124.885Y-82.885
X125.6Y-69.7
X125.7Y-72.7
X125.8Y-41.44
X125.9Y-54.5
X125.9Y-88.3
X126.19Y-44.93
X126.71Y-92.19
X126.9Y-121.3
X127.11Y-60.39
X127.2Y-77.8
X127.4Y-68.2
X127.4Y-81.4
X127.53Y-83.04
X127.862Y-87.337
X129.175Y-75.0
X129.2Y-49.4
X129.49Y-53.33
X129.8Y-71.6
X130.6Y-95.8
X130.975Y-87.0
X131.0Y-49.5
X131.83Y-82.42
X132.0Y-45.3
X132.75Y-81.85
X132.8Y-99.15
X133.0Y-74.4
X133.5Y-62.3
X133.9Y-66.25
X133.9Y-72.4
X134.05Y-53.627
X134.2Y-95.6
X134.6Y-89.0
X135.05Y-51.55
X135.188Y-98.512
X136.55Y-57.4
X137.3Y-95.7
X137.4Y-66.8
X138.0Y-50.9
X138.45Y-107.45
X139.1Y-103.2
X139.15Y-116.65
X139.7Y-89.7
X139.8Y-60.1
T3
X43.362Y-87.7
X43.362Y-93.3
X43.5Y-110.0
X43.5Y-114.9
X83.0Y-121.137
X88.5Y-121.137
X105.2Y-121.137
X109.8Y-121.137
X116.1Y-121.137
X121.6Y-121.137
T6
X44.42Y-69.86
X46.92Y-69.86
X49.42Y-69.86
X51.92Y-69.86
X58.64Y-69.98
X61.14Y-69.98
X63.64Y-69.98
X66.14Y-69.98
T7
X48.96Y-41.0
X51.5Y-41.0
X52.42Y-81.5
X52.42Y-99.28
X54.04Y-41.0
X54.96Y-81.5
X54.96Y-99.28
X54.96Y-104.11
X54.96Y-121.89
X56.58Y-41.0
X57.5Y-81.5
X57.5Y-99.28
X57.5Y-104.11
X57.5Y-121.89
X59.12Y-41.0
X60.04Y-81.5
X60.04Y-99.28
X60.04Y-104.11
X60.04Y-121.89
X61.66Y-41.0
X62.58Y-81.5
X62.58Y-99.28
X62.895Y-63.57
X64.2Y-41.0
X65.435Y-63.57
X66.9Y-81.52
X66.9Y-99.3
X69.44Y-81.52
X69.44Y-99.3
X69.46Y-104.11
X69.46Y-121.89
X71.98Y-81.52
X71.98Y-99.3
X72.0Y-104.11
X72.0Y-121.89
X74.52Y-81.52
X74.52Y-99.3
X74.54Y-104.11
X74.54Y-121.89
X77.06Y-81.52
X77.06Y-99.3
X84.0Y-95.22
X84.0Y-113.0
X86.54Y-95.22
X86.54Y-113.0
X89.08Y-95.22
X89.08Y-113.0
X95.92Y-72.72
X95.92Y-90.5
X98.46Y-72.72
X98.46Y-90.5
X98.46Y-95.11
X98.46Y-112.89
X101.0Y-72.72
X101.0Y-90.5
X101.0Y-95.11
X101.0Y-112.89
X103.54Y-72.72
X103.54Y-90.5
X103.54Y-95.11
X103.54Y-112.89
X106.08Y-72.72
X106.08Y-90.5
X110.34Y-75.12
X110.34Y-92.9
X112.88Y-75.12
X112.88Y-92.9
X112.9Y-97.5
X112.9Y-115.28
X115.42Y-75.12
X115.42Y-92.9
X115.44Y-97.5
X115.44Y-115.28
X117.96Y-75.12
X117.96Y-92.9
X117.98Y-97.5
X117.98Y-115.28
X120.5Y-75.12
X120.5Y-92.9
X137.8Y-69.5
X137.8Y-72.04
T8
X45.0Y-77.0
X45.0Y-82.0
X45.0Y-99.0
X45.0Y-104.0
X94.0Y-120.0
X99.0Y-120.0
X137.0Y-78.5
X137.0Y-83.5
T4
X139.175Y-49.5G85X139.825Y-49.5
G05
X139.175Y-56.5G85X139.825Y-56.5
G05
T5
X136.8Y-50.65G85X136.8Y-50.35
G05
X136.8Y-55.65G85X136.8Y-55.35
G05
T0
M30
