G04 #@! TF.GenerationSoftware,KiCad,Pcbnew,7.0.5-7.0.5~ubuntu20.04.1*
G04 #@! TF.CreationDate,2023-10-09T18:00:40-03:00*
G04 #@! TF.ProjectId,Phecda_board,50686563-6461-45f6-926f-6172642e6b69,rev?*
G04 #@! TF.SameCoordinates,Original*
G04 #@! TF.FileFunction,Soldermask,Top*
G04 #@! TF.FilePolarity,Negative*
%FSLAX46Y46*%
G04 Gerber Fmt 4.6, Leading zero omitted, Abs format (unit mm)*
G04 Created by KiCad (PCBNEW 7.0.5-7.0.5~ubuntu20.04.1) date 2023-10-09 18:00:40*
%MOMM*%
%LPD*%
G01*
G04 APERTURE LIST*
G04 Aperture macros list*
%AMRoundRect*
0 Rectangle with rounded corners*
0 $1 Rounding radius*
0 $2 $3 $4 $5 $6 $7 $8 $9 X,Y pos of 4 corners*
0 Add a 4 corners polygon primitive as box body*
4,1,4,$2,$3,$4,$5,$6,$7,$8,$9,$2,$3,0*
0 Add four circle primitives for the rounded corners*
1,1,$1+$1,$2,$3*
1,1,$1+$1,$4,$5*
1,1,$1+$1,$6,$7*
1,1,$1+$1,$8,$9*
0 Add four rect primitives between the rounded corners*
20,1,$1+$1,$2,$3,$4,$5,0*
20,1,$1+$1,$4,$5,$6,$7,0*
20,1,$1+$1,$6,$7,$8,$9,0*
20,1,$1+$1,$8,$9,$2,$3,0*%
%AMFreePoly0*
4,1,19,0.500000,-0.750000,0.000000,-0.750000,0.000000,-0.744911,-0.071157,-0.744911,-0.207708,-0.704816,-0.327430,-0.627875,-0.420627,-0.520320,-0.479746,-0.390866,-0.500000,-0.250000,-0.500000,0.250000,-0.479746,0.390866,-0.420627,0.520320,-0.327430,0.627875,-0.207708,0.704816,-0.071157,0.744911,0.000000,0.744911,0.000000,0.750000,0.500000,0.750000,0.500000,-0.750000,0.500000,-0.750000,
$1*%
%AMFreePoly1*
4,1,19,0.000000,0.744911,0.071157,0.744911,0.207708,0.704816,0.327430,0.627875,0.420627,0.520320,0.479746,0.390866,0.500000,0.250000,0.500000,-0.250000,0.479746,-0.390866,0.420627,-0.520320,0.327430,-0.627875,0.207708,-0.704816,0.071157,-0.744911,0.000000,-0.744911,0.000000,-0.750000,-0.500000,-0.750000,-0.500000,0.750000,0.000000,0.750000,0.000000,0.744911,0.000000,0.744911,
$1*%
G04 Aperture macros list end*
%ADD10RoundRect,0.150000X0.150000X-0.587500X0.150000X0.587500X-0.150000X0.587500X-0.150000X-0.587500X0*%
%ADD11R,1.700000X1.700000*%
%ADD12O,1.700000X1.700000*%
%ADD13FreePoly0,0.000000*%
%ADD14FreePoly1,0.000000*%
%ADD15C,2.200000*%
%ADD16RoundRect,0.150000X-0.587500X-0.150000X0.587500X-0.150000X0.587500X0.150000X-0.587500X0.150000X0*%
%ADD17RoundRect,0.200000X0.275000X-0.200000X0.275000X0.200000X-0.275000X0.200000X-0.275000X-0.200000X0*%
%ADD18R,0.400000X1.500000*%
%ADD19R,3.300000X3.500000*%
%ADD20C,10.200000*%
%ADD21RoundRect,0.200000X0.200000X0.275000X-0.200000X0.275000X-0.200000X-0.275000X0.200000X-0.275000X0*%
%ADD22R,1.500000X5.080000*%
%ADD23RoundRect,0.200000X-0.200000X-0.275000X0.200000X-0.275000X0.200000X0.275000X-0.200000X0.275000X0*%
%ADD24RoundRect,0.200000X-0.275000X0.200000X-0.275000X-0.200000X0.275000X-0.200000X0.275000X0.200000X0*%
%ADD25R,5.080000X1.500000*%
%ADD26RoundRect,0.250000X0.600000X0.725000X-0.600000X0.725000X-0.600000X-0.725000X0.600000X-0.725000X0*%
%ADD27O,1.700000X1.950000*%
%ADD28RoundRect,0.225000X-0.250000X0.225000X-0.250000X-0.225000X0.250000X-0.225000X0.250000X0.225000X0*%
%ADD29RoundRect,0.150000X0.150000X-0.512500X0.150000X0.512500X-0.150000X0.512500X-0.150000X-0.512500X0*%
%ADD30RoundRect,0.225000X0.250000X-0.225000X0.250000X0.225000X-0.250000X0.225000X-0.250000X-0.225000X0*%
%ADD31C,1.800000*%
%ADD32R,1.350000X0.400000*%
%ADD33O,1.550000X0.890000*%
%ADD34R,1.550000X1.200000*%
%ADD35O,0.950000X1.250000*%
%ADD36R,1.550000X1.500000*%
%ADD37RoundRect,0.250000X0.375000X0.625000X-0.375000X0.625000X-0.375000X-0.625000X0.375000X-0.625000X0*%
%ADD38RoundRect,0.218750X-0.218750X-0.256250X0.218750X-0.256250X0.218750X0.256250X-0.218750X0.256250X0*%
%ADD39RoundRect,0.250000X0.650000X-1.000000X0.650000X1.000000X-0.650000X1.000000X-0.650000X-1.000000X0*%
%ADD40R,1.250000X0.900000*%
%ADD41R,0.500000X0.800000*%
%ADD42RoundRect,0.150000X0.825000X0.150000X-0.825000X0.150000X-0.825000X-0.150000X0.825000X-0.150000X0*%
%ADD43RoundRect,0.150000X-0.150000X0.587500X-0.150000X-0.587500X0.150000X-0.587500X0.150000X0.587500X0*%
%ADD44RoundRect,0.225000X-0.225000X-0.250000X0.225000X-0.250000X0.225000X0.250000X-0.225000X0.250000X0*%
%ADD45R,1.500000X0.900000*%
%ADD46R,0.900000X1.500000*%
%ADD47C,0.600000*%
%ADD48R,4.200000X4.200000*%
%ADD49O,4.000000X2.000000*%
%ADD50R,1.000000X1.000000*%
%ADD51R,1.050000X2.200000*%
%ADD52RoundRect,0.250000X0.475000X-0.250000X0.475000X0.250000X-0.475000X0.250000X-0.475000X-0.250000X0*%
%ADD53O,2.000000X4.000000*%
%ADD54C,1.000000*%
%ADD55RoundRect,0.175000X0.625000X-0.175000X0.625000X0.175000X-0.625000X0.175000X-0.625000X-0.175000X0*%
%ADD56RoundRect,0.300000X0.400000X-0.300000X0.400000X0.300000X-0.400000X0.300000X-0.400000X-0.300000X0*%
%ADD57RoundRect,0.300000X0.800000X-0.300000X0.800000X0.300000X-0.800000X0.300000X-0.800000X-0.300000X0*%
%ADD58RoundRect,0.350000X0.350000X-0.450000X0.350000X0.450000X-0.350000X0.450000X-0.350000X-0.450000X0*%
%ADD59RoundRect,0.317500X0.317500X-1.157500X0.317500X1.157500X-0.317500X1.157500X-0.317500X-1.157500X0*%
G04 APERTURE END LIST*
D10*
X129050000Y-81375000D03*
X130950000Y-81375000D03*
X130000000Y-79500000D03*
D11*
X62895000Y-63570000D03*
D12*
X65435000Y-63570000D03*
D13*
X53100000Y-84500000D03*
D14*
X54400000Y-84500000D03*
D15*
X44000000Y-42000000D03*
D13*
X67700000Y-84500000D03*
D14*
X69000000Y-84500000D03*
D16*
X135825000Y-62350000D03*
X135825000Y-64250000D03*
X137700000Y-63300000D03*
D15*
X138000000Y-42000000D03*
D17*
X136000000Y-99325000D03*
X136000000Y-97675000D03*
D18*
X94850000Y-61370000D03*
X94200000Y-61370000D03*
X93550000Y-61370000D03*
X93550000Y-64030000D03*
X94200000Y-64030000D03*
X94850000Y-64030000D03*
D19*
X132000000Y-118900000D03*
X132000000Y-103100000D03*
D20*
X132000000Y-111000000D03*
D21*
X62695000Y-55643332D03*
X61045000Y-55643332D03*
D22*
X85500000Y-121137500D03*
X89750000Y-121137500D03*
X81250000Y-121137500D03*
D23*
X124675000Y-84500000D03*
X126325000Y-84500000D03*
D24*
X130900000Y-88175000D03*
X130900000Y-89825000D03*
D25*
X43562500Y-112500000D03*
X43562500Y-116750000D03*
X43562500Y-108250000D03*
D26*
X66140000Y-69980000D03*
D27*
X63640000Y-69980000D03*
X61140000Y-69980000D03*
X58640000Y-69980000D03*
D28*
X131100000Y-51925000D03*
X131100000Y-53475000D03*
D29*
X115100000Y-68775000D03*
X116050000Y-68775000D03*
X117000000Y-68775000D03*
X117000000Y-66500000D03*
X115100000Y-66500000D03*
D30*
X95500000Y-52667200D03*
X95500000Y-51117200D03*
D13*
X111050000Y-77700000D03*
D14*
X112350000Y-77700000D03*
D21*
X62695000Y-53866666D03*
X61045000Y-53866666D03*
X89925000Y-51600000D03*
X88275000Y-51600000D03*
D31*
X112900000Y-97500000D03*
X115440000Y-97500000D03*
X117980000Y-97500000D03*
X117980000Y-115280000D03*
X115440000Y-115280000D03*
X112900000Y-115280000D03*
D23*
X109675000Y-63000000D03*
X111325000Y-63000000D03*
X129175000Y-76500000D03*
X130825000Y-76500000D03*
D32*
X136800000Y-54300000D03*
X136800000Y-53650000D03*
X136800000Y-53000000D03*
X136800000Y-52350000D03*
X136800000Y-51700000D03*
D33*
X139500000Y-56500000D03*
D34*
X139500000Y-55900000D03*
D35*
X136800000Y-55500000D03*
D36*
X139500000Y-54000000D03*
X139500000Y-52000000D03*
D35*
X136800000Y-50500000D03*
D34*
X139500000Y-50100000D03*
D33*
X139500000Y-49500000D03*
D37*
X133800000Y-56400000D03*
X131000000Y-56400000D03*
D21*
X62695000Y-52090000D03*
X61045000Y-52090000D03*
D30*
X120050000Y-68275000D03*
X120050000Y-66725000D03*
D38*
X83212500Y-64500000D03*
X84787500Y-64500000D03*
D15*
X138000000Y-121000000D03*
D31*
X66900000Y-81520000D03*
X69440000Y-81520000D03*
X71980000Y-81520000D03*
X74520000Y-81520000D03*
X77060000Y-81520000D03*
X77060000Y-99300000D03*
X74520000Y-99300000D03*
X71980000Y-99300000D03*
X69440000Y-99300000D03*
X66900000Y-99300000D03*
D24*
X128600000Y-97175000D03*
X128600000Y-98825000D03*
D31*
X54960000Y-104110000D03*
X57500000Y-104110000D03*
X60040000Y-104110000D03*
X60040000Y-121890000D03*
X57500000Y-121890000D03*
X54960000Y-121890000D03*
D23*
X129175000Y-84500000D03*
X130825000Y-84500000D03*
D31*
X52420000Y-81500000D03*
X54960000Y-81500000D03*
X57500000Y-81500000D03*
X60040000Y-81500000D03*
X62580000Y-81500000D03*
X62580000Y-99280000D03*
X60040000Y-99280000D03*
X57500000Y-99280000D03*
X54960000Y-99280000D03*
X52420000Y-99280000D03*
D39*
X130700000Y-64400000D03*
X130700000Y-60400000D03*
D28*
X130800000Y-97225000D03*
X130800000Y-98775000D03*
D17*
X96980000Y-63365000D03*
X96980000Y-61715000D03*
D40*
X92300000Y-44400000D03*
X96150000Y-44400000D03*
X92300000Y-42900000D03*
X96150000Y-42900000D03*
D41*
X134800000Y-94500000D03*
X135700000Y-94500000D03*
X136600000Y-94500000D03*
X137500000Y-94500000D03*
X137500000Y-93300000D03*
X136600000Y-93300000D03*
X135700000Y-93300000D03*
X134800000Y-93300000D03*
D40*
X92400000Y-47800000D03*
X96250000Y-47800000D03*
X92400000Y-46300000D03*
X96250000Y-46300000D03*
D31*
X95920000Y-72720000D03*
X98460000Y-72720000D03*
X101000000Y-72720000D03*
X103540000Y-72720000D03*
X106080000Y-72720000D03*
X106080000Y-90500000D03*
X103540000Y-90500000D03*
X101000000Y-90500000D03*
X98460000Y-90500000D03*
X95920000Y-90500000D03*
D42*
X127500000Y-55750000D03*
X127500000Y-54480000D03*
X127500000Y-53210000D03*
X127500000Y-51940000D03*
X127500000Y-50670000D03*
X127500000Y-49400000D03*
X127500000Y-48130000D03*
X127500000Y-46860000D03*
X122550000Y-46860000D03*
X122550000Y-48130000D03*
X122550000Y-49400000D03*
X122550000Y-50670000D03*
X122550000Y-51940000D03*
X122550000Y-53210000D03*
X122550000Y-54480000D03*
X122550000Y-55750000D03*
D31*
X69460000Y-104110000D03*
X72000000Y-104110000D03*
X74540000Y-104110000D03*
X74540000Y-121890000D03*
X72000000Y-121890000D03*
X69460000Y-121890000D03*
D10*
X124550000Y-81375000D03*
X126450000Y-81375000D03*
X125500000Y-79500000D03*
D23*
X135675000Y-59200000D03*
X137325000Y-59200000D03*
D11*
X64200000Y-41000000D03*
D12*
X61660000Y-41000000D03*
X59120000Y-41000000D03*
X56580000Y-41000000D03*
X54040000Y-41000000D03*
X51500000Y-41000000D03*
X48960000Y-41000000D03*
D13*
X96500000Y-76000000D03*
D14*
X97800000Y-76000000D03*
D17*
X98900000Y-46050000D03*
X98900000Y-44400000D03*
X91200000Y-63695000D03*
X91200000Y-62045000D03*
D21*
X126325000Y-76500000D03*
X124675000Y-76500000D03*
D43*
X130587500Y-92462500D03*
X128687500Y-92462500D03*
X129637500Y-94337500D03*
D44*
X88325000Y-49400000D03*
X89875000Y-49400000D03*
D45*
X67405000Y-40300000D03*
X67405000Y-41570000D03*
X67405000Y-42840000D03*
X67405000Y-44110000D03*
X67405000Y-45380000D03*
X67405000Y-46650000D03*
X67405000Y-47920000D03*
X67405000Y-49190000D03*
X67405000Y-50460000D03*
X67405000Y-51730000D03*
X67405000Y-53000000D03*
X67405000Y-54270000D03*
X67405000Y-55540000D03*
X67405000Y-56810000D03*
D46*
X70445000Y-58060000D03*
X71715000Y-58060000D03*
X72985000Y-58060000D03*
X74255000Y-58060000D03*
X75525000Y-58060000D03*
X76795000Y-58060000D03*
X78065000Y-58060000D03*
X79335000Y-58060000D03*
X80605000Y-58060000D03*
X81875000Y-58060000D03*
D45*
X84905000Y-56810000D03*
X84905000Y-55540000D03*
X84905000Y-54270000D03*
X84905000Y-53000000D03*
X84905000Y-51730000D03*
X84905000Y-50460000D03*
X84905000Y-49190000D03*
X84905000Y-47920000D03*
X84905000Y-46650000D03*
X84905000Y-45380000D03*
X84905000Y-44110000D03*
X84905000Y-42840000D03*
X84905000Y-41570000D03*
X84905000Y-40300000D03*
D47*
X73950000Y-46877500D03*
X73950000Y-48402500D03*
X74712500Y-46115000D03*
X74712500Y-47640000D03*
X74712500Y-49165000D03*
X75475000Y-46877500D03*
D48*
X75475000Y-47640000D03*
D47*
X75475000Y-48402500D03*
X76237500Y-46115000D03*
X76237500Y-47640000D03*
X76237500Y-49165000D03*
X77000000Y-46877500D03*
X77000000Y-48402500D03*
D31*
X98460000Y-95110000D03*
X101000000Y-95110000D03*
X103540000Y-95110000D03*
X103540000Y-112890000D03*
X101000000Y-112890000D03*
X98460000Y-112890000D03*
D49*
X45000000Y-104000000D03*
X45000000Y-99000000D03*
D22*
X119000000Y-121137500D03*
X123250000Y-121137500D03*
X114750000Y-121137500D03*
D28*
X112050000Y-66725000D03*
X112050000Y-68275000D03*
D25*
X43562500Y-90500000D03*
X43562500Y-94750000D03*
X43562500Y-86250000D03*
D50*
X121000000Y-43500000D03*
D51*
X119525000Y-42000000D03*
D50*
X121000000Y-40500000D03*
D51*
X122475000Y-42000000D03*
D23*
X83175000Y-61500000D03*
X84825000Y-61500000D03*
X127175000Y-70000000D03*
X128825000Y-70000000D03*
D17*
X89200000Y-46250000D03*
X89200000Y-44600000D03*
D31*
X110340000Y-75120000D03*
X112880000Y-75120000D03*
X115420000Y-75120000D03*
X117960000Y-75120000D03*
X120500000Y-75120000D03*
X120500000Y-92900000D03*
X117960000Y-92900000D03*
X115420000Y-92900000D03*
X112880000Y-92900000D03*
X110340000Y-92900000D03*
D23*
X93825000Y-55050000D03*
X95475000Y-55050000D03*
D52*
X119150000Y-50520000D03*
X119150000Y-48620000D03*
D49*
X45000000Y-82000000D03*
X45000000Y-77000000D03*
D21*
X62695000Y-57420000D03*
X61045000Y-57420000D03*
D53*
X99000000Y-120000000D03*
X94000000Y-120000000D03*
D31*
X84000000Y-95220000D03*
X86540000Y-95220000D03*
X89080000Y-95220000D03*
X89080000Y-113000000D03*
X86540000Y-113000000D03*
X84000000Y-113000000D03*
D15*
X44000000Y-121000000D03*
D26*
X51920000Y-69860000D03*
D27*
X49420000Y-69860000D03*
X46920000Y-69860000D03*
X44420000Y-69860000D03*
D54*
X48030000Y-50830000D03*
X48030000Y-58810000D03*
D55*
X58530000Y-58010000D03*
X58530000Y-56910000D03*
X58530000Y-55810000D03*
X58530000Y-54710000D03*
X58530000Y-53610000D03*
X58530000Y-52510000D03*
X58530000Y-51410000D03*
X58530000Y-50310000D03*
X58530000Y-49210000D03*
D56*
X58030000Y-48010000D03*
D57*
X48430000Y-48010000D03*
D58*
X58030000Y-62610000D03*
D57*
X48430000Y-63510000D03*
D22*
X107500000Y-121137500D03*
X111750000Y-121137500D03*
X103250000Y-121137500D03*
D59*
X102500000Y-59025000D03*
X104500000Y-59025000D03*
X106500000Y-59025000D03*
X108500000Y-59025000D03*
X110500000Y-59025000D03*
X112500000Y-59025000D03*
X114500000Y-59025000D03*
X116500000Y-59025000D03*
X116500000Y-43975000D03*
X114500000Y-43975000D03*
X112500000Y-43975000D03*
X110500000Y-43975000D03*
X108500000Y-43975000D03*
X106500000Y-43975000D03*
X104500000Y-43975000D03*
X102500000Y-43975000D03*
D11*
X137800000Y-72040000D03*
D12*
X137800000Y-69500000D03*
D13*
X137000000Y-89600000D03*
D14*
X138300000Y-89600000D03*
D17*
X138000000Y-99325000D03*
X138000000Y-97675000D03*
D49*
X137000000Y-78500000D03*
X137000000Y-83500000D03*
D24*
X128700000Y-88175000D03*
X128700000Y-89825000D03*
D21*
X128825000Y-73000000D03*
X127175000Y-73000000D03*
M02*
